<svg width="20" height="20" viewBox="0 0 20 20" fill="none" xmlns="http://www.w3.org/2000/svg">
<path d="M15 0H1C0.4 0 0 0.4 0 1V11C0 11.6 0.4 12 1 12H2V17L7 12H15C15.6 12 16 11.6 16 11V1C16 0.4 15.6 0 15 0ZM4 7C3.4 7 3 6.6 3 6C3 5.4 3.4 5 4 5C4.6 5 5 5.4 5 6C5 6.6 4.6 7 4 7ZM8 7C7.4 7 7 6.6 7 6C7 5.4 7.4 5 8 5C8.6 5 9 5.4 9 6C9 6.6 8.6 7 8 7ZM12 7C11.4 7 11 6.6 11 6C11 5.4 11.4 5 12 5C12.6 5 13 5.4 13 6C13 6.6 12.6 7 12 7Z" fill="#244E8C"/>
<path d="M20 10V16C20 16.6 19.5 17 19 17H18V20L14 17H9C8.4 17 8 16.6 8 16V14H17C17.6 14 18 13.6 18 13V9H19C19.5 9 20 9.5 20 10Z" fill="#1E1E1E" fill-opacity="0.41"/>
</svg>
